<?xml version="1.0" standalone="no"?>
<!DOCTYPE svg PUBLIC "-//W3C//DTD SVG 20010904//EN"
 "http://www.w3.org/TR/2001/REC-SVG-20010904/DTD/svg10.dtd">
<svg version="1.0" xmlns="http://www.w3.org/2000/svg"
 width="919.000000pt" height="919.000000pt" viewBox="0 0 919.000000 919.000000"
 preserveAspectRatio="xMidYMid meet">
<metadata>
Created by potrace 1.11, written by Peter Selinger 2001-2013
</metadata>
<g transform="translate(0.000000,919.000000) scale(0.100000,-0.100000)"
fill="#000000" stroke="none">
<path d="M595 8943 c-10 -314 0 -1576 15 -1873 36 -756 92 -1349 171 -1800
226 -1303 813 -2495 1755 -3570 141 -160 501 -524 667 -673 395 -357 855 -701
1255 -940 l143 -85 84 48 c756 437 1597 1175 2210 1940 668 833 1136 1758
1389 2742 151 586 236 1281 286 2338 15 299 25 1560 15 1873 l-7 247 -3988 0
-3988 0 -7 -247z m687 -315 c-64 -67 -62 -46 -62 -711 0 -424 3 -614 11 -638
17 -49 55 -86 102 -98 26 -6 112 -8 222 -5 100 3 200 1 225 -4 41 -9 -195 -17
-502 -17 -87 0 -92 9 -96 160 l-4 125 -81 0 c-100 0 -150 20 -155 62 -5 44 34
61 144 66 l94 4 0 333 0 333 -100 4 c-86 3 -102 6 -121 25 -16 15 -20 28 -15
46 8 33 58 50 156 52 l75 2 5 125 c6 154 11 162 104 167 l30 1 -32 -32z m693
10 l45 -22 0 -648 c0 -356 -2 -648 -5 -648 -4 0 -20 7 -36 16 -33 17 -259 53
-348 55 -31 1 -72 -2 -93 -6 -54 -10 -76 1 -88 43 -6 23 -10 257 -10 635 l0
597 245 0 c231 0 247 -1 290 -22z m717 -595 c3 -491 1 -623 -9 -640 -12 -21
-20 -22 -125 -22 -157 0 -367 -33 -424 -66 l-44 -26 0 665 0 666 38 19 c34 19
58 20 299 21 l261 0 4 -617z m274 609 c28 -19 37 -60 38 -177 l1 -120 90 -6
c99 -6 121 -13 135 -39 19 -36 -31 -59 -150 -69 l-75 -6 0 -334 0 -334 90 -1
c101 -1 135 -14 135 -51 0 -36 -33 -49 -135 -55 l-90 -5 -5 -128 c-5 -119 -7
-130 -28 -147 -27 -22 -117 -35 -169 -25 l-38 8 32 7 c46 10 80 35 100 73 17
29 18 80 21 640 2 397 -1 620 -8 646 -5 21 -28 59 -51 85 l-41 46 69 0 c37 0
73 -4 79 -8z m790 -34 c-20 -23 -41 -59 -47 -80 -6 -24 -9 -254 -7 -645 3
-591 4 -609 23 -643 12 -19 36 -43 55 -55 33 -19 49 -20 245 -17 116 1 226 -2
245 -7 31 -8 -222 -16 -512 -16 -87 0 -92 9 -97 160 l-3 125 -72 0 c-126 0
-183 31 -158 86 14 29 66 44 160 44 l72 0 0 335 0 335 -85 0 c-94 0 -139 15
-150 51 -5 14 -1 27 12 40 21 22 117 42 177 37 l41 -3 5 120 c7 156 14 169
103 174 l29 1 -36 -42z m699 20 l45 -22 0 -175 0 -176 -20 33 c-40 65 -64 72
-263 72 -205 0 -213 -4 -153 -70 20 -22 36 -46 37 -53 0 -6 0 -95 -1 -197 -1
-179 -2 -186 -26 -221 -13 -19 -24 -47 -24 -62 l0 -27 105 0 c124 0 130 5 91
80 -28 54 -35 120 -13 120 8 0 28 -22 45 -49 18 -27 57 -72 88 -100 47 -43 62
-51 95 -51 l39 0 0 -209 0 -209 -47 18 c-27 10 -106 25 -178 34 -158 19 -195
21 -260 12 -61 -8 -75 0 -84 50 -3 22 -5 306 -3 632 l3 592 239 0 c226 0 242
-1 285 -22z m725 -602 c0 -551 -2 -626 -15 -640 -13 -12 -39 -15 -118 -15
-106 0 -316 -23 -377 -42 -19 -7 -50 -20 -67 -31 l-33 -20 0 666 0 666 38 19
c34 19 58 20 305 21 l267 0 0 -624z m270 614 c29 -16 40 -66 40 -185 l0 -113
95 -4 c81 -3 99 -7 117 -26 21 -20 21 -22 4 -41 -22 -24 -88 -41 -160 -41
l-56 0 0 -338 0 -339 73 5 c92 6 147 -14 147 -52 0 -39 -43 -56 -140 -56 l-80
0 0 -92 c-1 -112 -12 -167 -40 -190 -25 -20 -117 -33 -167 -23 l-38 8 34 8
c18 4 45 16 60 26 57 43 56 24 59 696 2 599 2 619 -17 660 -11 23 -32 57 -47
75 l-27 32 62 0 c34 0 71 -4 81 -10z m785 -35 c-19 -25 -39 -64 -45 -86 -7
-26 -10 -234 -8 -637 3 -574 4 -599 23 -637 38 -75 60 -80 300 -77 116 1 226
-2 245 -6 23 -6 -67 -10 -255 -14 -159 -2 -300 -1 -312 3 -30 11 -43 64 -43
182 l0 97 -75 0 c-46 0 -90 6 -115 16 -37 15 -41 20 -38 48 4 45 51 66 151 66
l77 0 0 335 0 335 -85 0 c-106 0 -145 16 -145 60 0 44 44 63 146 64 l82 1 4
120 c3 66 9 128 13 137 7 18 51 35 92 37 22 1 21 -1 -12 -44z m703 23 l42 -23
0 -135 c0 -145 -1 -152 -107 -501 -45 -147 -84 -202 -120 -166 -14 13 -19 45
-25 159 -5 79 -6 185 -2 236 5 82 8 92 25 92 13 0 27 -15 41 -45 14 -29 28
-45 38 -43 21 4 41 50 47 113 5 51 4 54 -19 60 -13 3 -36 1 -52 -4 -42 -17
-200 -14 -243 4 -19 8 -42 15 -49 15 -21 0 -44 -54 -51 -120 -7 -75 6 -79 65
-19 78 78 90 50 91 -224 1 -167 -6 -204 -48 -241 -48 -43 -35 -47 186 -44 193
3 208 4 211 21 2 11 -6 29 -18 43 -20 21 -21 26 -10 53 7 17 18 36 26 42 12
10 14 -33 14 -289 l0 -300 -48 18 c-45 17 -245 47 -342 52 -25 1 -66 -2 -92
-6 -40 -7 -49 -5 -67 13 -21 21 -21 25 -21 641 l0 620 243 0 c232 0 244 -1
285 -22z m724 -580 c2 -332 -1 -617 -5 -635 -9 -39 -20 -43 -132 -42 -146 2
-340 -27 -407 -60 l-58 -28 0 300 0 300 22 -28 c21 -27 21 -28 3 -61 -29 -55
-13 -64 111 -64 115 0 129 9 70 47 -31 20 -39 39 -117 260 l-83 238 -3 170 -4
170 33 17 c28 14 71 17 300 17 l267 1 3 -602z m263 596 c34 -13 45 -59 45
-184 l0 -120 79 0 c104 0 150 -18 151 -57 0 -24 -63 -45 -147 -51 l-83 -5 0
-338 0 -337 73 5 c96 7 150 -13 145 -54 -4 -39 -39 -53 -135 -53 l-83 0 0
-102 c0 -174 -13 -193 -135 -205 -72 -7 -122 10 -63 21 38 7 81 46 97 89 15
39 15 1245 0 1284 -5 15 -26 47 -45 70 l-35 43 60 0 c32 0 67 -3 76 -6z
m-6585 -1302 c-28 -34 -35 -39 -40 -25 -3 10 -4 286 -2 614 l3 595 32 39 32
39 5 -609 5 -610 -35 -43z m2511 643 l1 -610 -36 -40 -35 -40 -1 608 c0 432 3
615 11 630 13 25 51 69 55 64 2 -2 4 -277 5 -612z m2447 -650 l-38 -40 0 611
0 611 33 44 32 44 5 -615 5 -615 -37 -40z m1498 1182 c12 -23 14 -114 12 -637
-3 -570 -4 -610 -21 -627 -16 -16 -41 -18 -245 -18 -210 -1 -232 -3 -296 -24
l-69 -23 -19 24 c-9 12 -18 26 -18 30 0 21 282 59 410 55 95 -2 130 10 164 55
19 27 20 39 18 640 l-2 613 25 -30 c14 -16 33 -42 41 -58z m-4967 4 c18 -41
10 -1256 -7 -1273 -10 -10 -58 -12 -205 -10 -197 3 -312 -10 -374 -41 -27 -14
-29 -13 -51 14 -22 28 -22 28 -3 39 36 19 212 41 352 45 153 4 188 14 215 67
14 27 16 96 15 632 l-2 600 25 -23 c13 -13 29 -35 35 -50z m2493 -595 c2 -325
0 -609 -4 -630 -10 -66 -19 -69 -218 -61 -180 7 -267 -1 -357 -31 -45 -16 -46
-15 -71 9 l-25 25 21 11 c37 20 213 42 352 45 153 4 189 15 216 68 15 29 17
92 15 633 l-1 600 35 -39 35 -39 2 -591z m-967 321 c36 -63 34 -116 -6 -156
-37 -37 -92 -43 -109 -12 -11 21 -14 169 -4 195 4 11 19 16 50 16 40 0 45 -3
69 -43z m2699 -159 c25 -65 25 -67 6 -73 -11 -4 -20 -11 -20 -16 0 -5 -18 -9
-40 -9 -37 0 -40 2 -36 23 3 12 8 40 11 61 5 32 43 92 52 82 1 -1 14 -32 27
-68z m-2556 -190 l-3 -82 -51 64 c-85 108 -85 102 -15 169 34 33 62 67 63 77
4 37 9 -147 6 -228z m-2918 -594 c145 -2 335 -26 374 -46 l24 -13 -23 -27 -23
-27 -49 19 c-86 32 -186 42 -368 34 l-170 -7 35 41 c23 26 40 38 50 34 8 -3
76 -7 150 -8z m2452 0 c69 6 294 -15 368 -35 60 -16 65 -23 37 -53 -24 -26
-27 -26 -54 -13 -68 34 -135 42 -347 40 l-210 -3 38 39 c35 36 41 38 68 29 18
-6 59 -8 100 -4z m2518 0 c185 -2 390 -36 390 -64 0 -4 -11 -17 -24 -29 -22
-21 -26 -21 -52 -8 -68 34 -136 42 -341 40 -112 -2 -203 0 -203 4 0 4 14 22
32 40 22 23 37 31 48 26 8 -4 76 -8 150 -9z m-4436 -145 c50 -39 22 -119 -43
-119 -33 0 -71 39 -71 72 0 24 44 68 68 68 11 0 31 -9 46 -21z m2486 1 c28
-28 27 -84 -2 -104 -49 -35 -111 -4 -111 54 0 61 71 92 113 50z m2481 2 c45
-37 17 -122 -40 -122 -43 0 -71 26 -71 66 0 64 62 95 111 56z m-4483 -9 c-43
-2 -113 -2 -155 0 -43 1 -8 3 77 3 85 0 120 -2 78 -3z m2480 0 c-43 -2 -113
-2 -155 0 -43 1 -8 3 77 3 85 0 120 -2 78 -3z m2480 0 c-43 -2 -113 -2 -155 0
-43 1 -8 3 77 3 85 0 120 -2 78 -3z m812 -440 c0 -10 -7 -108 -15 -218 -8
-110 -15 -203 -15 -207 0 -5 -1687 -8 -3750 -8 l-3749 0 -5 33 c-7 40 -26 323
-26 377 l0 40 3780 0 c3593 0 3780 -1 3780 -17z m-97 -1065 c-4 -29 -18 -125
-32 -213 l-26 -160 -3626 -3 -3625 -2 -28 177 c-15 98 -30 195 -33 216 l-6 37
3691 0 3691 0 -6 -52z m-205 -1000 c-11 -40 -39 -134 -62 -208 l-42 -135
-3372 -3 -3372 -2 -10 26 c-6 15 -33 101 -61 193 -27 91 -52 174 -55 184 -5
16 166 17 3495 17 l3499 0 -20 -72z m-344 -940 c-4 -13 -48 -106 -98 -208
l-91 -185 -2942 -3 -2941 -2 -39 72 c-43 80 -163 332 -163 342 0 3 1413 6
3141 6 l3140 0 -7 -22z m-520 -960 c-19 -32 -153 -232 -212 -315 l-65 -93
-2333 0 -2333 0 -43 58 c-23 31 -89 126 -146 210 l-103 152 2621 0 c2094 0
2620 -3 2614 -12z m-744 -985 c-12 -16 -100 -112 -196 -216 l-175 -187 -1493
0 -1494 0 -182 193 c-99 107 -188 204 -196 215 l-15 22 1886 0 1886 0 -21 -27z
m-1151 -1091 c-246 -196 -672 -492 -707 -492 -42 0 -505 324 -803 562 l-34 28
834 0 834 0 -124 -98z"/>
<path d="M1858 8343 c-33 -5 -34 -7 -8 -49 20 -32 20 -35 4 -91 -20 -73 -54
-153 -64 -153 -9 0 -55 102 -69 154 -8 30 -7 47 4 74 26 62 26 62 -90 62 -58
0 -105 -4 -105 -9 0 -5 8 -15 17 -22 39 -32 100 -191 165 -428 25 -91 49 -120
72 -89 7 10 36 101 65 203 60 213 78 260 115 294 32 30 33 51 2 51 -13 0 -36
2 -52 4 -16 2 -41 2 -56 -1z"/>
<path d="M2365 8350 c-11 -5 -66 -9 -122 -9 -68 -1 -103 -5 -103 -12 0 -6 11
-24 25 -41 25 -29 25 -32 25 -215 l0 -185 -30 -35 c-25 -28 -28 -38 -20 -53
10 -19 22 -20 183 -20 209 0 223 5 213 78 -10 75 -35 92 -61 42 -29 -57 -106
-86 -156 -60 -17 10 -19 22 -19 110 0 89 2 100 20 110 22 12 65 -5 89 -34 31
-37 61 -5 61 63 0 45 -15 91 -29 91 -6 0 -26 -13 -44 -30 -36 -31 -74 -39 -95
-18 -15 15 -16 85 -1 127 9 27 16 31 46 31 25 0 45 -9 70 -30 46 -41 73 -40
73 2 0 17 -5 47 -12 65 -11 30 -15 33 -53 32 -22 0 -49 -4 -60 -9z"/>
<path d="M4693 8344 c-4 -10 7 -26 31 -45 l36 -30 0 -207 c0 -114 -4 -212 -8
-217 -4 -6 -20 -19 -35 -28 -21 -14 -27 -25 -25 -45 l3 -27 128 -3 127 -3 0
35 c0 26 -5 36 -20 41 -48 15 -50 24 -50 241 0 204 0 205 25 229 13 14 29 25
35 25 5 0 10 11 10 25 l0 25 -125 0 c-105 0 -127 -3 -132 -16z"/>
<path d="M7500 8360 c-8 -5 -38 -10 -67 -10 -88 0 -140 -63 -131 -160 7 -70
44 -120 139 -186 94 -66 122 -110 97 -154 -32 -58 -105 -45 -134 26 -8 19 -21
50 -29 70 -12 29 -18 34 -29 25 -15 -13 -30 -156 -20 -196 6 -24 9 -25 91 -25
103 0 132 14 170 77 59 102 28 188 -107 293 -88 69 -113 106 -94 138 6 10 27
18 47 20 31 3 39 -2 68 -37 18 -23 38 -41 44 -41 14 0 27 76 18 111 -6 24 -31
59 -42 59 -3 0 -13 -5 -21 -10z"/>
</g>
</svg>
